<?xml version="1.0" standalone="no"?>
<!DOCTYPE svg PUBLIC "-//W3C//DTD SVG 20010904//EN"
 "http://www.w3.org/TR/2001/REC-SVG-20010904/DTD/svg10.dtd">
<svg version="1.0" xmlns="http://www.w3.org/2000/svg"
 width="32.000000pt" height="32.000000pt" viewBox="0 0 32.000000 32.000000"
 preserveAspectRatio="xMidYMid meet">

<g transform="translate(0.000000,32.000000) scale(0.100000,-0.100000)"
fill="#000000" stroke="none">
<path d="M73 300 c-10 -11 -30 -20 -46 -20 -16 0 -26 -4 -22 -10 3 -5 17 -10
29 -10 13 0 29 -7 36 -15 15 -18 42 -19 58 -3 18 18 14 56 -7 68 -26 14 -29
13 -48 -10z m44 -11 c14 -14 6 -39 -12 -39 -18 0 -28 17 -21 35 6 18 18 19 33
4z"/>
<path d="M165 270 c3 -5 37 -10 75 -10 38 0 72 5 75 10 4 6 -23 10 -75 10 -52
0 -79 -4 -75 -10z"/>
<path d="M194 186 c-3 -8 -4 -25 -2 -38 4 -28 48 -37 68 -14 7 9 23 16 36 16
13 0 24 5 24 10 0 6 -11 10 -24 10 -13 0 -29 7 -36 15 -16 19 -59 20 -66 1z
m56 -26 c0 -13 -7 -20 -20 -20 -13 0 -20 7 -20 20 0 13 7 20 20 20 13 0 20 -7
20 -20z"/>
<path d="M0 160 c0 -6 35 -10 85 -10 50 0 85 4 85 10 0 6 -35 10 -85 10 -50 0
-85 -4 -85 -10z"/>
<path d="M60 75 c-7 -8 -21 -15 -31 -15 -10 0 -21 -4 -24 -10 -4 -6 5 -10 19
-10 14 0 26 -4 26 -10 0 -5 9 -14 20 -20 27 -15 60 4 60 33 0 43 -44 63 -70
32z m47 -21 c8 -21 -13 -42 -28 -27 -13 13 -5 43 11 43 6 0 13 -7 17 -16z"/>
<path d="M155 50 c-4 -6 25 -10 80 -10 55 0 84 4 80 10 -3 6 -39 10 -80 10
-41 0 -77 -4 -80 -10z"/>
</g>
</svg>
